<svg width="114" height="121" viewBox="0 0 114 121" fill="none" xmlns="http://www.w3.org/2000/svg">
<path fill-rule="evenodd" clip-rule="evenodd" d="M82.0678 16.9962L101.194 35.1935C101.438 35.4263 101.68 35.6561 101.919 35.8832C106.11 39.8625 109.427 43.0126 111.219 47.1906C113.011 51.3687 113.006 55.9433 113.001 61.7223C113 62.052 113 62.3857 113 62.7235L113 83.416C113 90.6038 113 96.5976 112.361 101.356C111.685 106.378 110.2 110.913 106.556 114.556C102.913 118.2 98.3782 119.685 93.3558 120.361C88.5975 121 82.6038 121 75.4159 121L34.2066 121C29.0764 121 24.7953 121 21.3223 120.661C17.69 120.307 14.3103 119.537 11.23 117.587C8.48171 115.846 6.15354 113.518 4.41319 110.77C2.46264 107.69 1.69305 104.31 1.33862 100.678C0.999741 97.2047 0.999842 92.9236 0.999964 87.7935L0.999969 62.1588C0.999969 61.835 0.999664 61.5151 0.999364 61.199C0.994083 55.6492 0.989903 51.2571 2.6531 47.2125C4.31629 43.1679 7.40898 40.0493 11.3168 36.1086C11.5394 35.8842 11.7647 35.657 11.9925 35.4269L29.1646 18.0777C29.2614 17.98 29.3577 17.8826 29.4538 17.7855C34.418 12.7698 38.5614 8.58342 42.3016 5.69321C46.2517 2.64071 50.4287 0.483447 55.5061 0.407284C60.5834 0.331122 64.8233 2.36213 68.8632 5.29477C72.6883 8.0715 76.9554 12.1317 82.0678 16.9962ZM61.8138 15.0059C58.8536 12.857 57.1431 12.3841 55.6861 12.4059C54.2291 12.4278 52.5335 12.9519 49.6391 15.1885C46.6071 17.5315 43.0223 21.1354 37.6933 26.5194L20.5212 43.8686C15.6113 48.829 14.398 50.2038 13.7514 51.7763C13.1048 53.3487 13 55.1793 13 62.1588V87.5C13 92.9994 13.0066 96.6913 13.2819 99.5123C13.5481 102.24 14.0196 103.51 14.5514 104.35C15.3425 105.599 16.4008 106.657 17.65 107.449C18.4898 107.98 19.76 108.452 22.4877 108.718C23.0986 108.778 23.7503 108.825 24.4524 108.862C26.3193 108.96 27.2528 109.01 27.8764 108.418C28.5 107.827 28.5 106.86 28.5 104.928V103C28.5 102.752 28.4998 102.508 28.4997 102.267C28.4972 98.3389 28.4954 95.305 29.1593 92.6544C31.1317 84.7801 37.2801 78.6317 45.1544 76.6593C47.8049 75.9954 50.8389 75.9973 54.7671 75.9997C55.008 75.9999 55.2522 76 55.5 76C67.6502 76 77.5 85.8497 77.5 98V104.994C77.5 106.887 77.5 107.833 78.0921 108.42C78.6842 109.007 79.6247 108.998 81.5057 108.981C85.8113 108.943 89.0961 108.825 91.7568 108.468C95.4485 107.971 97.0285 107.114 98.071 106.071C99.1136 105.029 99.9714 103.449 100.468 99.7569C100.987 95.8926 101 90.7121 101 83V62.7235C101 55.4497 100.887 53.5441 100.19 51.9203C99.4941 50.2965 98.1915 48.901 92.9219 43.8872L74.094 25.9733C68.606 20.7517 64.9146 17.2569 61.8138 15.0059ZM61.5 109C63.3856 109 64.3284 109 64.9142 108.414C65.5 107.828 65.5 106.886 65.5 105V98C65.5 92.4772 61.0228 88 55.5 88C50.4896 88 49.0856 88.0453 48.0702 88.2997C44.4909 89.1963 41.6962 91.991 40.7997 95.5702C40.5453 96.5857 40.5 97.9897 40.5 103V105C40.5 106.886 40.5 107.828 41.0858 108.414C41.6715 109 42.6144 109 44.5 109H61.5Z" fill="black"/>
</svg>
