<svg width="1116" height="47" viewBox="0 0 1116 47" fill="none" xmlns="http://www.w3.org/2000/svg">
<g filter="url(#filter0_di_1557_459)">
<rect width="1116" height="46" fill="white"/>
<g clip-path="url(#clip0_1557_459)">
<path d="M964.5 34.4736C969.132 34.4736 972.967 30.6304 972.967 26.0068C972.967 21.375 969.124 17.54 964.492 17.54C959.868 17.54 956.033 21.375 956.033 26.0068C956.033 30.6304 959.876 34.4736 964.5 34.4736ZM964.5 33.0625C960.582 33.0625 957.453 29.9248 957.453 26.0068C957.453 22.0889 960.574 18.9512 964.492 18.9512C968.41 18.9512 971.547 22.0889 971.556 26.0068C971.564 29.9248 968.418 33.0625 964.5 33.0625ZM964.5 21.7817C964.143 21.7817 963.877 22.0391 963.877 22.4043V26.5547L963.944 28.3062L963.114 27.3101L962.126 26.314C962.01 26.2061 961.86 26.1313 961.686 26.1313C961.346 26.1313 961.088 26.397 961.088 26.729C961.088 26.9033 961.138 27.0527 961.246 27.1606L964.019 29.9248C964.185 30.0908 964.326 30.1572 964.5 30.1572C964.683 30.1572 964.832 30.0825 964.99 29.9248L967.754 27.1606C967.862 27.0527 967.928 26.9033 967.928 26.729C967.928 26.397 967.663 26.1313 967.322 26.1313C967.14 26.1313 966.99 26.1978 966.882 26.314L965.903 27.3101L965.056 28.3145L965.123 26.5547V22.4043C965.123 22.0391 964.865 21.7817 964.5 21.7817Z" fill="#737373"/>
<path d="M1005.5 28.2646C1005.86 28.2646 1006.16 27.9658 1006.16 27.6172V19.0923L1006.11 17.8472L1006.67 18.4365L1007.92 19.7812C1008.04 19.9141 1008.21 19.9805 1008.37 19.9805C1008.72 19.9805 1008.98 19.7314 1008.98 19.3911C1008.98 19.2168 1008.91 19.084 1008.79 18.9595L1005.98 16.2534C1005.82 16.0874 1005.67 16.0293 1005.5 16.0293C1005.33 16.0293 1005.18 16.0874 1005.02 16.2534L1002.21 18.9595C1002.09 19.084 1002.01 19.2168 1002.01 19.3911C1002.01 19.7314 1002.27 19.9805 1002.61 19.9805C1002.78 19.9805 1002.95 19.9141 1003.07 19.7812L1004.33 18.4365L1004.89 17.8472L1004.84 19.0923V27.6172C1004.84 27.9658 1005.14 28.2646 1005.5 28.2646ZM1000.74 34.7642H1010.26C1011.99 34.7642 1012.86 33.9009 1012.86 32.1909V23.9067C1012.86 22.1968 1011.99 21.3335 1010.26 21.3335H1007.94V22.6699H1010.23C1011.05 22.6699 1011.53 23.1182 1011.53 23.9814V32.1162C1011.53 32.9795 1011.05 33.4277 1010.23 33.4277H1000.75C999.922 33.4277 999.465 32.9795 999.465 32.1162V23.9814C999.465 23.1182 999.922 22.6699 1000.75 22.6699H1003.05V21.3335H1000.74C999 21.3335 998.129 22.1968 998.129 23.9067V32.1909C998.129 33.9009 999 34.7642 1000.74 34.7642Z" fill="#737373"/>
<path d="M1046.5 33.0044C1046.91 33.0044 1047.25 32.6807 1047.25 32.2822V26.7622H1052.61C1053.01 26.7622 1053.35 26.4219 1053.35 26.0151C1053.35 25.6084 1053.01 25.2764 1052.61 25.2764H1047.25V19.748C1047.25 19.3496 1046.91 19.0259 1046.5 19.0259C1046.09 19.0259 1045.76 19.3496 1045.76 19.748V25.2764H1040.39C1039.99 25.2764 1039.65 25.6084 1039.65 26.0151C1039.65 26.4219 1039.99 26.7622 1040.39 26.7622H1045.76V32.2822C1045.76 32.6807 1046.09 33.0044 1046.5 33.0044Z" fill="#737373"/>
<path d="M1081.32 30.8711H1082.74V32.1411C1082.74 33.8511 1083.61 34.7144 1085.35 34.7144H1093.68C1095.41 34.7144 1096.28 33.8511 1096.28 32.1411V23.7407C1096.28 22.0308 1095.41 21.1675 1093.68 21.1675H1092.26V19.8975C1092.26 18.1875 1091.38 17.3242 1089.66 17.3242H1081.32C1079.58 17.3242 1078.72 18.1875 1078.72 19.8975V28.2979C1078.72 30.0078 1079.58 30.8711 1081.32 30.8711ZM1081.34 29.5347C1080.51 29.5347 1080.05 29.0864 1080.05 28.2231V19.9722C1080.05 19.1089 1080.51 18.6606 1081.34 18.6606H1089.63C1090.46 18.6606 1090.92 19.1089 1090.92 19.9722V21.1675H1085.35C1083.61 21.1675 1082.74 22.0225 1082.74 23.7407V29.5347H1081.34ZM1085.37 33.3779C1084.54 33.3779 1084.08 32.9297 1084.08 32.0664V23.8154C1084.08 22.9521 1084.54 22.5039 1085.37 22.5039H1093.66C1094.48 22.5039 1094.95 22.9521 1094.95 23.8154V32.0664C1094.95 32.9297 1094.48 33.3779 1093.66 33.3779H1085.37Z" fill="#737373"/>
</g>
<g clip-path="url(#clip1_1557_459)">
<path d="M153.264 32.9878L146.682 26.563C146.524 26.4053 146.441 26.2144 146.441 26.0068C146.441 25.791 146.532 25.5835 146.69 25.4507L153.264 19.0176C153.405 18.8765 153.588 18.7935 153.804 18.7935C154.235 18.7935 154.559 19.1255 154.559 19.5571C154.559 19.7563 154.476 19.9556 154.343 20.0967L148.3 26.0068L154.343 31.917C154.476 32.0581 154.559 32.249 154.559 32.4565C154.559 32.8882 154.235 33.2119 153.804 33.2119C153.588 33.2119 153.405 33.1289 153.264 32.9878Z" fill="#737373"/>
<path d="M180.196 33.2202C180.412 33.2202 180.595 33.1372 180.736 32.9961L187.318 26.563C187.476 26.4053 187.559 26.2144 187.559 26.0068C187.559 25.791 187.476 25.5918 187.318 25.4507L180.744 19.0259C180.595 18.8765 180.412 18.7935 180.196 18.7935C179.765 18.7935 179.441 19.1255 179.441 19.5571C179.441 19.7563 179.524 19.9556 179.657 20.0967L185.7 26.0068L179.657 31.917C179.524 32.0581 179.441 32.249 179.441 32.4565C179.441 32.8882 179.765 33.2202 180.196 33.2202Z" fill="#BFBFBF"/>
</g>
<path d="M101.32 33.6602H115.68C117.423 33.6602 118.287 32.7969 118.287 31.0869V20.9517C118.287 19.2417 117.423 18.3784 115.68 18.3784H101.32C99.585 18.3784 98.7134 19.2334 98.7134 20.9517V31.0869C98.7134 32.8052 99.585 33.6602 101.32 33.6602ZM101.336 32.3237C100.506 32.3237 100.05 31.8838 100.05 31.0205V21.0181C100.05 20.1548 100.506 19.7148 101.336 19.7148H105.039V32.3237H101.336ZM115.664 19.7148C116.485 19.7148 116.95 20.1548 116.95 21.0181V31.0205C116.95 31.8838 116.485 32.3237 115.664 32.3237H106.342V19.7148H115.664ZM103.437 22.7944C103.694 22.7944 103.91 22.5703 103.91 22.3296C103.91 22.0806 103.694 21.8647 103.437 21.8647H101.66C101.411 21.8647 101.187 22.0806 101.187 22.3296C101.187 22.5703 101.411 22.7944 101.66 22.7944H103.437ZM103.437 24.9443C103.694 24.9443 103.91 24.7202 103.91 24.4712C103.91 24.2222 103.694 24.0146 103.437 24.0146H101.66C101.411 24.0146 101.187 24.2222 101.187 24.4712C101.187 24.7202 101.411 24.9443 101.66 24.9443H103.437ZM103.437 27.0859C103.694 27.0859 103.91 26.8784 103.91 26.6294C103.91 26.3804 103.694 26.1646 103.437 26.1646H101.66C101.411 26.1646 101.187 26.3804 101.187 26.6294C101.187 26.8784 101.411 27.0859 101.66 27.0859H103.437Z" fill="#737373"/>
<g filter="url(#filter1_i_1557_459)">
<path fill-rule="evenodd" clip-rule="evenodd" d="M27 32C30.3137 32 33 29.3137 33 26C33 22.6863 30.3137 20 27 20C23.6863 20 21 22.6863 21 26C21 29.3137 23.6863 32 27 32Z" fill="#EE6A5F"/>
</g>
<path d="M32.75 26C32.75 29.1756 30.1756 31.75 27 31.75C23.8244 31.75 21.25 29.1756 21.25 26C21.25 22.8244 23.8244 20.25 27 20.25C30.1756 20.25 32.75 22.8244 32.75 26Z" stroke="#CE5347" stroke-width="0.5"/>
<g filter="url(#filter2_i_1557_459)">
<path fill-rule="evenodd" clip-rule="evenodd" d="M47 32C50.3137 32 53 29.3137 53 26C53 22.6863 50.3137 20 47 20C43.6863 20 41 22.6863 41 26C41 29.3137 43.6863 32 47 32Z" fill="#F5BD4F"/>
</g>
<path d="M52.75 26C52.75 29.1756 50.1756 31.75 47 31.75C43.8244 31.75 41.25 29.1756 41.25 26C41.25 22.8244 43.8244 20.25 47 20.25C50.1756 20.25 52.75 22.8244 52.75 26Z" stroke="#D6A243" stroke-width="0.5"/>
<g filter="url(#filter3_i_1557_459)">
<path fill-rule="evenodd" clip-rule="evenodd" d="M67 32C70.3137 32 73 29.3137 73 26C73 22.6863 70.3137 20 67 20C63.6863 20 61 22.6863 61 26C61 29.3137 63.6863 32 67 32Z" fill="#61C454"/>
</g>
<path d="M72.75 26C72.75 29.1756 70.1756 31.75 67 31.75C63.8244 31.75 61.25 29.1756 61.25 26C61.25 22.8244 63.8244 20.25 67 20.25C70.1756 20.25 72.75 22.8244 72.75 26Z" stroke="#58A942" stroke-width="0.5"/>
<g clip-path="url(#clip2_1557_459)">
<path d="M312.938 34.6147C313.07 34.6147 313.286 34.5649 313.494 34.4487C318.217 31.8008 319.835 30.6802 319.835 27.6504V21.3003C319.835 20.4287 319.462 20.1548 318.756 19.856C317.777 19.4492 314.614 18.312 313.635 17.9717C313.411 17.897 313.17 17.8472 312.938 17.8472C312.705 17.8472 312.464 17.9136 312.249 17.9717C311.269 18.2539 308.098 19.4575 307.119 19.856C306.421 20.1465 306.04 20.4287 306.04 21.3003V27.6504C306.04 30.6802 307.667 31.7925 312.381 34.4487C312.597 34.5649 312.805 34.6147 312.938 34.6147ZM313.27 19.2583C314.523 19.7563 316.955 20.6362 318.242 21.0762C318.466 21.1592 318.516 21.2754 318.516 21.5576V27.3433C318.516 29.9082 317.287 30.5806 313.452 32.9131C313.211 33.0625 313.079 33.104 312.946 33.1123V19.1836C313.029 19.1836 313.137 19.2085 313.27 19.2583Z" fill="#737373"/>
<rect x="338.438" y="12" width="439" height="28" rx="6" fill="black" fill-opacity="0.05"/>
<g clip-path="url(#clip3_1557_459)">
<path d="M514.648 31.7158H520.227C520.982 31.7158 521.352 31.3408 521.352 30.5205V26.2197C521.352 25.4814 521.047 25.1006 520.42 25.0361V23.5596C520.42 21.3506 518.973 20.2842 517.438 20.2842C515.902 20.2842 514.455 21.3506 514.455 23.5596V25.0654C513.881 25.1533 513.523 25.5283 513.523 26.2197V30.5205C513.523 31.3408 513.893 31.7158 514.648 31.7158ZM515.398 23.4365C515.398 21.9658 516.342 21.1865 517.438 21.1865C518.533 21.1865 519.477 21.9658 519.477 23.4365V25.0303L515.398 25.0361V23.4365Z" fill="#9E9E9E"/>
<path d="M528.349 31V23.9091H529.401V24.9801H529.475C529.604 24.6293 529.838 24.3446 530.177 24.1261C530.515 23.9076 530.897 23.7983 531.322 23.7983C531.402 23.7983 531.502 23.7998 531.622 23.8029C531.742 23.806 531.833 23.8106 531.894 23.8168V24.9247C531.857 24.9155 531.773 24.9016 531.64 24.8832C531.511 24.8616 531.374 24.8509 531.229 24.8509C530.885 24.8509 530.577 24.9232 530.306 25.0678C530.038 25.2094 529.826 25.4064 529.669 25.6587C529.515 25.908 529.438 26.1927 529.438 26.5128V31H528.349ZM535.891 31.1477C535.208 31.1477 534.618 30.9969 534.123 30.6953C533.63 30.3906 533.25 29.9659 532.982 29.4212C532.718 28.8733 532.585 28.2363 532.585 27.5099C532.585 26.7836 532.718 26.1435 532.982 25.5895C533.25 25.0324 533.623 24.5985 534.1 24.2876C534.58 23.9737 535.14 23.8168 535.78 23.8168C536.149 23.8168 536.514 23.8783 536.874 24.0014C537.234 24.1245 537.562 24.3246 537.857 24.6016C538.153 24.8755 538.388 25.2386 538.564 25.6911C538.739 26.1435 538.827 26.7005 538.827 27.3622V27.8239H533.361V26.8821H537.719C537.719 26.482 537.639 26.125 537.479 25.8111C537.322 25.4972 537.097 25.2494 536.805 25.0678C536.516 24.8862 536.174 24.7955 535.78 24.7955C535.346 24.7955 534.971 24.9032 534.654 25.1186C534.34 25.331 534.098 25.608 533.929 25.9496C533.76 26.2912 533.675 26.6574 533.675 27.0483V27.6761C533.675 28.2116 533.767 28.6656 533.952 29.038C534.14 29.4073 534.4 29.6889 534.732 29.8828C535.064 30.0736 535.451 30.169 535.891 30.169C536.177 30.169 536.436 30.129 536.666 30.049C536.9 29.9659 537.102 29.8428 537.271 29.6797C537.44 29.5135 537.571 29.3073 537.664 29.0611L538.716 29.3565C538.605 29.7135 538.419 30.0275 538.158 30.2983C537.896 30.5661 537.573 30.7753 537.188 30.9261C536.803 31.0739 536.371 31.1477 535.891 31.1477ZM542.519 31.1662C542.07 31.1662 541.662 31.0816 541.296 30.9123C540.929 30.7399 540.638 30.4922 540.423 30.169C540.208 29.8428 540.1 29.4489 540.1 28.9872C540.1 28.581 540.18 28.2517 540.34 27.9993C540.5 27.7438 540.714 27.5438 540.982 27.3991C541.249 27.2545 541.545 27.1468 541.868 27.076C542.194 27.0021 542.522 26.9437 542.851 26.9006C543.282 26.8452 543.631 26.8036 543.899 26.7759C544.17 26.7451 544.367 26.6944 544.49 26.6236C544.616 26.5528 544.679 26.4297 544.679 26.2543V26.2173C544.679 25.7618 544.555 25.4079 544.305 25.1555C544.059 24.9032 543.685 24.777 543.184 24.777C542.664 24.777 542.256 24.8909 541.96 25.1186C541.665 25.3464 541.457 25.5895 541.337 25.848L540.303 25.4787C540.488 25.0478 540.734 24.7124 541.042 24.4723C541.352 24.2292 541.691 24.0599 542.057 23.9645C542.427 23.866 542.79 23.8168 543.147 23.8168C543.374 23.8168 543.636 23.8445 543.932 23.8999C544.23 23.9522 544.518 24.0614 544.795 24.2276C545.075 24.3938 545.307 24.6446 545.492 24.9801C545.677 25.3156 545.769 25.7649 545.769 26.3281V31H544.679V30.0398H544.624C544.55 30.1937 544.427 30.3583 544.255 30.5337C544.082 30.7092 543.853 30.8584 543.567 30.9815C543.281 31.1046 542.931 31.1662 542.519 31.1662ZM542.685 30.1875C543.116 30.1875 543.479 30.1029 543.775 29.9336C544.073 29.7643 544.298 29.5458 544.449 29.2781C544.602 29.0103 544.679 28.7287 544.679 28.4332V27.4361C544.633 27.4915 544.532 27.5423 544.375 27.5884C544.221 27.6315 544.042 27.67 543.839 27.7038C543.639 27.7346 543.444 27.7623 543.253 27.7869C543.065 27.8085 542.913 27.8269 542.796 27.8423C542.513 27.8793 542.248 27.9393 542.002 28.0224C541.759 28.1024 541.562 28.224 541.411 28.3871C541.263 28.5471 541.189 28.7656 541.189 29.0426C541.189 29.4212 541.329 29.7074 541.609 29.9013C541.893 30.0921 542.251 30.1875 542.685 30.1875ZM548.795 21.5455V31H547.705V21.5455H548.795ZM556.537 23.9091L553.915 31H552.807L550.184 23.9091H551.366L553.324 29.5597H553.397L555.355 23.9091H556.537ZM557.923 31V23.9091H559.012V31H557.923ZM558.477 22.7273C558.264 22.7273 558.081 22.6549 557.927 22.5103C557.777 22.3656 557.701 22.1918 557.701 21.9886C557.701 21.7855 557.777 21.6116 557.927 21.467C558.081 21.3223 558.264 21.25 558.477 21.25C558.689 21.25 558.871 21.3223 559.021 21.467C559.175 21.6116 559.252 21.7855 559.252 21.9886C559.252 22.1918 559.175 22.3656 559.021 22.5103C558.871 22.6549 558.689 22.7273 558.477 22.7273ZM565.978 25.4972L565 25.7741C564.938 25.611 564.847 25.4525 564.727 25.2987C564.61 25.1417 564.45 25.0124 564.247 24.9109C564.044 24.8093 563.784 24.7585 563.467 24.7585C563.033 24.7585 562.671 24.8585 562.382 25.0586C562.096 25.2556 561.953 25.5064 561.953 25.8111C561.953 26.0819 562.051 26.2958 562.248 26.4528C562.445 26.6097 562.753 26.7405 563.172 26.8452L564.224 27.1037C564.858 27.2576 565.331 27.493 565.641 27.81C565.952 28.1239 566.108 28.5286 566.108 29.0241C566.108 29.4304 565.991 29.7936 565.757 30.1136C565.526 30.4337 565.203 30.6861 564.787 30.8707C564.372 31.0554 563.889 31.1477 563.338 31.1477C562.615 31.1477 562.016 30.9908 561.542 30.6768C561.068 30.3629 560.768 29.9044 560.642 29.3011L561.676 29.0426C561.774 29.4242 561.961 29.7105 562.234 29.9013C562.511 30.0921 562.873 30.1875 563.319 30.1875C563.827 30.1875 564.23 30.0798 564.529 29.8643C564.83 29.6458 564.981 29.3842 564.981 29.0795C564.981 28.8333 564.895 28.6271 564.723 28.4609C564.55 28.2917 564.286 28.1655 563.929 28.0824L562.747 27.8054C562.097 27.6515 561.62 27.413 561.316 27.0898C561.014 26.7636 560.863 26.3558 560.863 25.8665C560.863 25.4664 560.976 25.1125 561.2 24.8047C561.428 24.4969 561.737 24.2553 562.128 24.0799C562.522 23.9045 562.968 23.8168 563.467 23.8168C564.169 23.8168 564.72 23.9706 565.12 24.2784C565.523 24.5862 565.809 24.9924 565.978 25.4972ZM570.779 23.9091V24.8324H567.105V23.9091H570.779ZM568.176 22.2102H569.265V28.9688C569.265 29.2765 569.31 29.5073 569.399 29.6612C569.491 29.812 569.608 29.9136 569.75 29.9659C569.895 30.0152 570.047 30.0398 570.207 30.0398C570.327 30.0398 570.426 30.0336 570.502 30.0213C570.579 30.0059 570.641 29.9936 570.687 29.9844L570.909 30.9631C570.835 30.9908 570.732 31.0185 570.599 31.0462C570.467 31.0769 570.299 31.0923 570.096 31.0923C569.788 31.0923 569.487 31.0262 569.191 30.8938C568.899 30.7615 568.656 30.5599 568.462 30.2891C568.271 30.0182 568.176 29.6766 568.176 29.2642V22.2102ZM574.453 31.1662C574.004 31.1662 573.596 31.0816 573.23 30.9123C572.863 30.7399 572.573 30.4922 572.357 30.169C572.142 29.8428 572.034 29.4489 572.034 28.9872C572.034 28.581 572.114 28.2517 572.274 27.9993C572.434 27.7438 572.648 27.5438 572.916 27.3991C573.183 27.2545 573.479 27.1468 573.802 27.076C574.128 27.0021 574.456 26.9437 574.785 26.9006C575.216 26.8452 575.566 26.8036 575.833 26.7759C576.104 26.7451 576.301 26.6944 576.424 26.6236C576.55 26.5528 576.613 26.4297 576.613 26.2543V26.2173C576.613 25.7618 576.489 25.4079 576.24 25.1555C575.993 24.9032 575.619 24.777 575.118 24.777C574.598 24.777 574.19 24.8909 573.894 25.1186C573.599 25.3464 573.391 25.5895 573.271 25.848L572.237 25.4787C572.422 25.0478 572.668 24.7124 572.976 24.4723C573.287 24.2292 573.625 24.0599 573.991 23.9645C574.361 23.866 574.724 23.8168 575.081 23.8168C575.309 23.8168 575.57 23.8445 575.866 23.8999C576.164 23.9522 576.452 24.0614 576.729 24.2276C577.009 24.3938 577.241 24.6446 577.426 24.9801C577.611 25.3156 577.703 25.7649 577.703 26.3281V31H576.613V30.0398H576.558C576.484 30.1937 576.361 30.3583 576.189 30.5337C576.016 30.7092 575.787 30.8584 575.501 30.9815C575.215 31.1046 574.865 31.1662 574.453 31.1662ZM574.619 30.1875C575.05 30.1875 575.413 30.1029 575.709 29.9336C576.007 29.7643 576.232 29.5458 576.383 29.2781C576.537 29.0103 576.613 28.7287 576.613 28.4332V27.4361C576.567 27.4915 576.466 27.5423 576.309 27.5884C576.155 27.6315 575.976 27.67 575.773 27.7038C575.573 27.7346 575.378 27.7623 575.187 27.7869C574.999 27.8085 574.847 27.8269 574.73 27.8423C574.447 27.8793 574.182 27.9393 573.936 28.0224C573.693 28.1024 573.496 28.224 573.345 28.3871C573.197 28.5471 573.123 28.7656 573.123 29.0426C573.123 29.4212 573.263 29.7074 573.544 29.9013C573.827 30.0921 574.185 30.1875 574.619 30.1875ZM580.434 31.0739C580.206 31.0739 580.01 30.9923 579.847 30.8292C579.684 30.6661 579.603 30.4706 579.603 30.2429C579.603 30.0152 579.684 29.8197 579.847 29.6566C580.01 29.4935 580.206 29.4119 580.434 29.4119C580.661 29.4119 580.857 29.4935 581.02 29.6566C581.183 29.8197 581.265 30.0152 581.265 30.2429C581.265 30.3937 581.226 30.5322 581.149 30.6584C581.075 30.7846 580.975 30.8861 580.849 30.9631C580.726 31.0369 580.587 31.0739 580.434 31.0739ZM586.048 31.1477C585.408 31.1477 584.846 30.9954 584.363 30.6907C583.883 30.386 583.508 29.9598 583.237 29.4119C582.969 28.8641 582.835 28.224 582.835 27.4915C582.835 26.7528 582.969 26.1081 583.237 25.5572C583.508 25.0063 583.883 24.5785 584.363 24.2738C584.846 23.9691 585.408 23.8168 586.048 23.8168C586.688 23.8168 587.249 23.9691 587.729 24.2738C588.212 24.5785 588.587 25.0063 588.855 25.5572C589.126 26.1081 589.261 26.7528 589.261 27.4915C589.261 28.224 589.126 28.8641 588.855 29.4119C588.587 29.9598 588.212 30.386 587.729 30.6907C587.249 30.9954 586.688 31.1477 586.048 31.1477ZM586.048 30.169C586.535 30.169 586.935 30.0444 587.249 29.7951C587.562 29.5458 587.795 29.218 587.946 28.8118C588.096 28.4055 588.172 27.9654 588.172 27.4915C588.172 27.0175 588.096 26.5759 587.946 26.1665C587.795 25.7572 587.562 25.4264 587.249 25.174C586.935 24.9216 586.535 24.7955 586.048 24.7955C585.562 24.7955 585.162 24.9216 584.848 25.174C584.534 25.4264 584.302 25.7572 584.151 26.1665C584 26.5759 583.925 27.0175 583.925 27.4915C583.925 27.9654 584 28.4055 584.151 28.8118C584.302 29.218 584.534 29.5458 584.848 29.7951C585.162 30.0444 585.562 30.169 586.048 30.169ZM590.872 31V23.9091H591.925V24.9801H591.999C592.128 24.6293 592.362 24.3446 592.701 24.1261C593.039 23.9076 593.421 23.7983 593.845 23.7983C593.925 23.7983 594.025 23.7998 594.146 23.8029C594.266 23.806 594.356 23.8106 594.418 23.8168V24.9247C594.381 24.9155 594.296 24.9016 594.164 24.8832C594.035 24.8616 593.898 24.8509 593.753 24.8509C593.408 24.8509 593.101 24.9232 592.83 25.0678C592.562 25.2094 592.35 25.4064 592.193 25.6587C592.039 25.908 591.962 26.1927 591.962 26.5128V31H590.872ZM598.304 33.8068C597.777 33.8068 597.325 33.7391 596.946 33.6037C596.568 33.4714 596.252 33.2959 596 33.0774C595.751 32.862 595.552 32.6312 595.405 32.3849L596.272 31.7756C596.371 31.9048 596.496 32.0526 596.646 32.2188C596.797 32.388 597.003 32.5342 597.265 32.6573C597.53 32.7835 597.876 32.8466 598.304 32.8466C598.876 32.8466 599.349 32.7081 599.721 32.4311C600.093 32.1541 600.28 31.7202 600.28 31.1293V29.6889H600.187C600.107 29.8182 599.993 29.9782 599.846 30.169C599.701 30.3568 599.492 30.5245 599.218 30.6722C598.947 30.8169 598.581 30.8892 598.119 30.8892C597.547 30.8892 597.033 30.7538 596.577 30.483C596.125 30.2121 595.766 29.8182 595.502 29.3011C595.24 28.7841 595.109 28.1562 595.109 27.4176C595.109 26.6913 595.237 26.0588 595.492 25.5202C595.748 24.9786 596.103 24.56 596.559 24.2646C597.014 23.966 597.54 23.8168 598.138 23.8168C598.599 23.8168 598.965 23.8937 599.236 24.0476C599.51 24.1984 599.719 24.3707 599.864 24.5646C600.012 24.7554 600.126 24.9124 600.206 25.0355H600.317V23.9091H601.369V31.2031C601.369 31.8125 601.231 32.308 600.954 32.6896C600.68 33.0743 600.31 33.3559 599.846 33.5344C599.384 33.716 598.87 33.8068 598.304 33.8068ZM598.267 29.9105C598.704 29.9105 599.073 29.8105 599.375 29.6104C599.676 29.4104 599.906 29.1226 600.063 28.7472C600.22 28.3717 600.298 27.9223 600.298 27.3991C600.298 26.8883 600.221 26.4374 600.067 26.0465C599.913 25.6557 599.686 25.3494 599.384 25.1278C599.082 24.9062 598.71 24.7955 598.267 24.7955C597.805 24.7955 597.42 24.9124 597.113 25.1463C596.808 25.3802 596.579 25.6941 596.425 26.0881C596.274 26.482 596.199 26.919 596.199 27.3991C596.199 27.8916 596.276 28.3271 596.429 28.7056C596.586 29.0811 596.817 29.3765 597.122 29.592C597.43 29.8043 597.811 29.9105 598.267 29.9105Z" fill="#4C4C4C"/>
</g>
<path d="M765.721 25.6152C765.867 25.6152 765.979 25.5684 766.061 25.4805L768.475 23.0547C768.58 22.9551 768.621 22.8379 768.621 22.7031C768.621 22.5742 768.568 22.4453 768.475 22.3516L766.061 19.9023C765.979 19.8086 765.861 19.7617 765.721 19.7617C765.457 19.7617 765.258 19.9727 765.258 20.2422C765.258 20.3652 765.305 20.4824 765.387 20.5762L766.951 22.1113C766.617 22.0527 766.277 22.0176 765.938 22.0176C763.066 22.0176 760.758 24.3203 760.758 27.1914C760.758 30.0684 763.066 32.377 765.938 32.377C768.809 32.377 771.111 30.0684 771.111 27.1914C771.111 26.9102 770.912 26.7051 770.625 26.7051C770.35 26.7051 770.168 26.9102 770.168 27.1914C770.168 29.5469 768.287 31.4336 765.938 31.4336C763.588 31.4336 761.701 29.5469 761.701 27.1914C761.701 24.8418 763.588 22.9609 765.938 22.9609C766.383 22.9609 766.793 22.9961 767.145 23.0723L765.393 24.8125C765.305 24.9062 765.258 25.0234 765.258 25.1465C765.258 25.416 765.457 25.6152 765.721 25.6152Z" fill="#797979"/>
</g>
</g>
<defs>
<filter id="filter0_di_1557_459" x="0" y="0" width="1116" height="46.5" filterUnits="userSpaceOnUse" color-interpolation-filters="sRGB">
<feFlood flood-opacity="0" result="BackgroundImageFix"/>
<feColorMatrix in="SourceAlpha" type="matrix" values="0 0 0 0 0 0 0 0 0 0 0 0 0 0 0 0 0 0 127 0" result="hardAlpha"/>
<feOffset dy="0.5"/>
<feColorMatrix type="matrix" values="0 0 0 0 0 0 0 0 0 0 0 0 0 0 0 0 0 0 0.15 0"/>
<feBlend mode="normal" in2="BackgroundImageFix" result="effect1_dropShadow_1557_459"/>
<feBlend mode="normal" in="SourceGraphic" in2="effect1_dropShadow_1557_459" result="shape"/>
<feColorMatrix in="SourceAlpha" type="matrix" values="0 0 0 0 0 0 0 0 0 0 0 0 0 0 0 0 0 0 127 0" result="hardAlpha"/>
<feOffset dy="-0.5"/>
<feComposite in2="hardAlpha" operator="arithmetic" k2="-1" k3="1"/>
<feColorMatrix type="matrix" values="0 0 0 0 0 0 0 0 0 0 0 0 0 0 0 0 0 0 0.05 0"/>
<feBlend mode="normal" in2="shape" result="effect2_innerShadow_1557_459"/>
</filter>
<filter id="filter1_i_1557_459" x="21" y="20" width="12" height="12" filterUnits="userSpaceOnUse" color-interpolation-filters="sRGB">
<feFlood flood-opacity="0" result="BackgroundImageFix"/>
<feBlend mode="normal" in="SourceGraphic" in2="BackgroundImageFix" result="shape"/>
<feColorMatrix in="SourceAlpha" type="matrix" values="0 0 0 0 0 0 0 0 0 0 0 0 0 0 0 0 0 0 127 0" result="hardAlpha"/>
<feOffset/>
<feGaussianBlur stdDeviation="3"/>
<feComposite in2="hardAlpha" operator="arithmetic" k2="-1" k3="1"/>
<feColorMatrix type="matrix" values="0 0 0 0 0.92549 0 0 0 0 0.427451 0 0 0 0 0.384314 0 0 0 1 0"/>
<feBlend mode="normal" in2="shape" result="effect1_innerShadow_1557_459"/>
</filter>
<filter id="filter2_i_1557_459" x="41" y="20" width="12" height="12" filterUnits="userSpaceOnUse" color-interpolation-filters="sRGB">
<feFlood flood-opacity="0" result="BackgroundImageFix"/>
<feBlend mode="normal" in="SourceGraphic" in2="BackgroundImageFix" result="shape"/>
<feColorMatrix in="SourceAlpha" type="matrix" values="0 0 0 0 0 0 0 0 0 0 0 0 0 0 0 0 0 0 127 0" result="hardAlpha"/>
<feOffset/>
<feGaussianBlur stdDeviation="3"/>
<feComposite in2="hardAlpha" operator="arithmetic" k2="-1" k3="1"/>
<feColorMatrix type="matrix" values="0 0 0 0 0.960784 0 0 0 0 0.768627 0 0 0 0 0.317647 0 0 0 1 0"/>
<feBlend mode="normal" in2="shape" result="effect1_innerShadow_1557_459"/>
</filter>
<filter id="filter3_i_1557_459" x="61" y="20" width="12" height="12" filterUnits="userSpaceOnUse" color-interpolation-filters="sRGB">
<feFlood flood-opacity="0" result="BackgroundImageFix"/>
<feBlend mode="normal" in="SourceGraphic" in2="BackgroundImageFix" result="shape"/>
<feColorMatrix in="SourceAlpha" type="matrix" values="0 0 0 0 0 0 0 0 0 0 0 0 0 0 0 0 0 0 127 0" result="hardAlpha"/>
<feOffset/>
<feGaussianBlur stdDeviation="3"/>
<feComposite in2="hardAlpha" operator="arithmetic" k2="-1" k3="1"/>
<feColorMatrix type="matrix" values="0 0 0 0 0.407843 0 0 0 0 0.8 0 0 0 0 0.345098 0 0 0 1 0"/>
<feBlend mode="normal" in2="shape" result="effect1_innerShadow_1557_459"/>
</filter>
<clipPath id="clip0_1557_459">
<rect width="156" height="28" fill="white" transform="translate(948 12)"/>
</clipPath>
<clipPath id="clip1_1557_459">
<rect width="66" height="28" fill="white" transform="translate(134 12)"/>
</clipPath>
<clipPath id="clip2_1557_459">
<rect width="523.125" height="28" fill="white" transform="translate(296.438 12)"/>
</clipPath>
<clipPath id="clip3_1557_459">
<rect x="513.523" y="18" width="89.8281" height="16" fill="white"/>
</clipPath>
</defs>
</svg>
